<svg width="228" height="59" viewBox="0 0 228 59" fill="none" xmlns="http://www.w3.org/2000/svg">
<path fill-rule="evenodd" clip-rule="evenodd" d="M78.659 46.1636C75.4772 46.1636 72.6604 46.1636 69.5829 46.1636C69.5829 37.2961 69.5829 28.5329 69.5829 19.6133C72.2431 19.6133 74.8512 19.6133 77.6679 19.6133C77.8244 20.3435 77.9809 21.1781 78.1374 22.0127C85.6487 17.6833 89.2478 17.7354 93.5773 22.4822C95.9767 20.0306 98.8456 18.6743 102.393 18.883C106.357 19.1438 108.913 20.8651 109.121 24.8294C109.434 31.8713 109.226 38.9652 109.226 46.1636C106.2 46.1636 103.384 46.1636 100.15 46.1636C100.15 42.2514 100.15 38.4436 100.15 34.6358C100.15 32.3407 100.306 30.0456 99.941 27.8548C99.7845 26.8116 98.6891 25.0902 98.011 25.0902C96.8634 25.0902 95.5072 25.977 94.6727 26.9159C94.0989 27.5418 94.0989 28.898 94.0989 29.8891C94.0467 35.2096 94.0989 40.5301 94.0989 46.1114C91.0213 46.1114 88.1003 46.1114 84.7619 46.1114C84.7619 43.2947 84.7619 40.4779 84.7619 37.609C84.7619 34.5315 84.7619 31.5061 84.7619 28.4286C84.7619 26.6551 84.449 24.9338 82.206 24.9338C80.1717 24.9338 78.9198 26.29 78.8677 28.2721C78.7112 32.1321 78.7633 35.992 78.7633 39.7998C78.659 41.8341 78.659 43.9206 78.659 46.1636Z" fill="#ffffff"/>
<path fill-rule="evenodd" clip-rule="evenodd" d="M140.262 33.7484C135.358 33.7484 130.82 33.6962 126.335 33.7484C125.083 33.7484 123.466 33.1746 123.309 35.4697C123.048 38.8081 123.779 40.7381 126.022 41.2597C128.056 41.677 129.881 41.4683 130.768 39.1732C130.977 38.6516 131.029 38.0257 131.186 37.4519C134.054 37.4519 136.819 37.4519 139.584 37.4519C140.105 41.2075 138.592 44.1807 135.098 45.4848C129.569 47.5713 123.987 47.5191 118.458 45.3283C115.954 44.3372 114.389 42.3029 114.233 39.747C113.972 35.1568 113.868 30.5144 114.285 25.9241C114.598 22.5858 117.206 20.2385 120.388 19.8212C124.665 19.2474 129.099 19.1431 133.324 19.6647C137.288 20.1342 139.792 22.8988 140.001 27.2282C140.001 29.2103 140.105 31.2446 140.262 33.7484ZM127.273 29.4711C128.682 29.0017 131.133 30.5144 131.029 27.3325C130.925 25.0896 129.673 23.8377 127.378 23.7855C124.978 23.7334 123.622 25.0374 123.57 27.3847C123.466 30.5665 125.969 28.8974 127.273 29.4711Z" fill="#ffffff"/>
<path fill-rule="evenodd" clip-rule="evenodd" d="M201.344 46.0583C198.631 46.0583 195.971 46.0583 193.102 46.0583C192.841 45.4323 192.58 44.7543 192.32 44.1805C190.233 44.9629 188.251 45.954 186.217 46.4756C181.939 47.4667 177.871 45.4324 176.671 41.9897C175.263 37.8167 176.775 34.1133 181.105 32.0268C183.609 30.8271 186.373 30.2533 188.929 29.0536C190.129 28.4798 191.016 27.2279 191.798 26.1325C191.902 25.976 190.65 24.4112 189.868 24.2547C188.199 23.8374 186.582 24.1504 185.852 26.1847C185.695 26.6541 184.913 27.1758 184.391 27.2279C182.044 27.3322 179.697 27.2801 177.401 27.2801C177.088 23.6809 178.705 20.8642 181.939 19.7166C186.791 17.9953 191.694 18.0475 196.545 19.7688C199.309 20.7599 200.718 22.742 200.77 25.7674C200.822 29.8882 200.926 33.9568 201.031 38.0776C201.083 40.6335 201.239 43.2416 201.344 46.0583ZM191.85 32.6006C189.607 33.696 187.729 34.1654 186.478 35.313C185.591 36.1476 184.965 37.9732 185.278 39.1208C185.486 40.0075 187.416 41.0508 188.408 40.8943C189.555 40.6856 190.963 39.4338 191.381 38.3384C192.059 36.93 191.746 35.1043 191.85 32.6006Z" fill="#ffffff"/>
<path fill-rule="evenodd" clip-rule="evenodd" d="M204.684 19.1428C207.657 19.1428 210.265 19.1428 213.082 19.1428C214.073 24.5676 215.064 29.9403 216.003 35.3129C216.211 35.3651 216.368 35.3651 216.577 35.4173C217.568 30.0446 218.611 24.6198 219.602 19.195C222.367 19.195 224.975 19.195 228 19.195C227.218 22.2725 226.539 25.1936 225.809 28.0625C224.036 34.8956 222.367 41.781 220.437 48.562C218.872 54.1955 215.22 56.9079 207.135 55.0301C207.135 53.3087 207.135 51.5874 207.135 49.6574C207.761 49.6053 208.335 49.5531 208.909 49.5009C211.256 49.2401 211.934 48.3534 211.36 46.0061C209.326 37.8689 207.24 29.7838 205.205 21.6466C205.101 20.9163 204.945 20.1339 204.684 19.1428Z" fill="#ffffff"/>
<path fill-rule="evenodd" clip-rule="evenodd" d="M62.1761 46.1632C58.9421 46.1632 55.9167 46.1632 52.7349 46.1632C52.7349 37.2957 52.7349 28.6369 52.7349 19.665C55.8124 19.665 58.89 19.665 62.1761 19.665C62.1761 28.4282 62.1761 37.1392 62.1761 46.1632Z" fill="#ffffff"/>
<path d="M62.1761 12.2065H52.7349V17.1619H62.1761V12.2065Z" fill="#ffffff"/>
<path fill-rule="evenodd" clip-rule="evenodd" d="M10.6931 12.7796H2.08647C0.938909 12.7796 0 11.8407 0 10.5888V2.08647C0 0.938909 0.938909 0 2.08647 0H10.6931C11.8407 0 12.7796 0.938909 12.7796 2.08647V10.5888C12.7275 11.8929 11.8407 12.7796 10.6931 12.7796Z" fill="#008C98"/>
<path fill-rule="evenodd" clip-rule="evenodd" d="M27.2281 12.7796H18.6214C17.4738 12.7796 16.5349 11.8407 16.5349 10.5888V2.08647C16.5349 0.938909 17.4738 0 18.6214 0H27.2281C28.3756 0 29.3145 0.938909 29.3145 2.08647V10.5888C29.3145 11.8929 28.3756 12.7796 27.2281 12.7796Z" fill="#008C98"/>
<path fill-rule="evenodd" clip-rule="evenodd" d="M43.7628 12.7796H35.1562C34.0086 12.7796 33.0697 11.8407 33.0697 10.5888V2.08647C33.0697 0.938909 34.0086 0 35.1562 0H43.7628C44.9104 0 45.8493 0.938909 45.8493 2.08647V10.5888C45.8493 11.8929 44.9104 12.7796 43.7628 12.7796Z" fill="#008C98"/>
<path fill-rule="evenodd" clip-rule="evenodd" d="M16.5883 27.2801V18.6734C16.5883 17.5258 17.5272 16.5869 18.6747 16.5869H27.2814C28.429 16.5869 29.3679 17.5258 29.3679 18.6734V27.2801C29.3679 28.4276 28.429 29.3665 27.2814 29.3665H18.6747C17.5272 29.3665 16.5883 28.4276 16.5883 27.2801Z" fill="#008C98"/>
<path fill-rule="evenodd" clip-rule="evenodd" d="M16.5883 43.8162V35.2095C16.5883 34.062 17.5272 33.123 18.6747 33.123H27.2814C28.429 33.123 29.3679 34.062 29.3679 35.2095V43.8162C29.3679 44.9637 28.429 45.9027 27.2814 45.9027H18.6747C17.5272 45.9027 16.5883 44.9637 16.5883 43.8162Z" fill="#008C98"/>
<path fill-rule="evenodd" clip-rule="evenodd" d="M0.0510254 27.2801V18.6734C0.0510254 17.5258 0.989939 16.5869 2.1375 16.5869H10.7442C11.8917 16.5869 12.8306 17.5258 12.8306 18.6734V27.2801C12.8306 28.4276 11.8917 29.3665 10.7442 29.3665H2.1375C0.937777 29.3665 0.0510254 28.4276 0.0510254 27.2801Z" fill="#DEF1FB"/>
<path fill-rule="evenodd" clip-rule="evenodd" d="M0.0510254 43.8162V35.2095C0.0510254 34.062 0.989939 33.123 2.1375 33.123H10.7442C11.8917 33.123 12.8306 34.062 12.8306 35.2095V43.8162C12.8306 44.9637 11.8917 45.9027 10.7442 45.9027H2.1375C0.937777 45.9027 0.0510254 44.9637 0.0510254 43.8162Z" fill="#DEF1FB"/>
<path fill-rule="evenodd" clip-rule="evenodd" d="M33.1232 27.2801V18.6734C33.1232 17.5258 34.0621 16.5869 35.2096 16.5869H43.8163C44.9639 16.5869 45.9028 17.5258 45.9028 18.6734V27.2801C45.9028 28.4276 44.9639 29.3665 43.8163 29.3665H35.2096C34.0621 29.3665 33.1232 28.4276 33.1232 27.2801Z" fill="#DEF1FB"/>
<path fill-rule="evenodd" clip-rule="evenodd" d="M33.1232 43.8162V35.2095C33.1232 34.062 34.0621 33.123 35.2096 33.123H43.8163C44.9639 33.123 45.9028 34.062 45.9028 35.2095V43.8162C45.9028 44.9637 44.9639 45.9027 43.8163 45.9027H35.2096C34.0621 45.9027 33.1232 44.9637 33.1232 43.8162Z" fill="#DEF1FB"/>
<path fill-rule="evenodd" clip-rule="evenodd" d="M173.439 31.558C173.439 25.1421 168.588 19.9259 162.224 19.5608H144.593V33.6966V34.8442V50.1797C144.593 50.9621 144.698 51.6924 144.854 52.3705C145.011 52.7356 145.115 53.1529 145.271 53.518C145.637 54.5091 146.158 55.2915 146.836 55.9697C147.358 56.5956 147.984 57.1172 148.714 57.5345C148.975 57.691 149.236 57.7953 149.497 57.9518C150.644 58.4734 151.896 58.7342 153.304 58.7342V43.4508H161.442C164.363 43.4508 167.023 42.4076 169.109 40.7384C169.37 40.4776 169.631 40.2168 169.892 39.956C170.779 39.1736 171.404 38.1825 172.03 37.2436C172.552 36.2004 173.022 35.0528 173.282 33.9053C173.282 33.7488 173.282 33.5401 173.387 33.2793C173.439 32.7577 173.439 32.1318 173.439 31.558ZM164.519 32.6012C164.519 32.7577 164.415 32.9663 164.363 33.1228C164.102 33.488 163.841 33.8531 163.58 34.1139C162.954 34.5312 162.276 34.8442 161.442 34.8442H153.304V33.3315V28.324H160.607H161.389C163.163 28.324 164.676 29.8366 164.676 31.6623C164.728 31.8709 164.623 32.2361 164.519 32.6012Z" fill="#ffffff"/>
<path fill-rule="evenodd" clip-rule="evenodd" d="M144.593 37.5562C144.593 37.5562 154.661 38.443 162.068 35.887C172.813 32.2879 170.205 23.2639 170.205 23.2639C170.205 23.2639 174.899 27.4369 172.865 32.8095C171.561 36.3565 168.17 39.434 164.415 40.7381C155.495 43.8156 144.646 42.4073 144.646 42.4073V37.5562H144.593Z" fill="#DDEFF5"/>
<path fill-rule="evenodd" clip-rule="evenodd" d="M144.593 36.7222C144.593 36.7222 153.878 37.609 161.285 35.0531C172.03 31.4539 169.422 22.4299 169.422 22.4299C169.422 22.4299 174.117 26.655 172.083 32.0277C170.779 35.4704 167.388 38.5479 163.632 39.9041C154.713 43.086 144.646 41.6776 144.646 41.6776V36.7222H144.593Z" fill="#00AFBE"/>
</svg>
